<svg width="104" height="25" viewBox="0 0 104 25" fill="none" xmlns="http://www.w3.org/2000/svg">
<path d="M0.762383 24V0.199998H3.55038L14.2264 18.186H12.7304L23.2704 0.199998H26.0584L26.0924 24H22.8284L22.7944 5.334H23.5764L14.1924 21.11H12.6284L3.17638 5.334H4.02638V24H0.762383ZM43.095 24.272C39.967 24.272 37.5077 23.3767 35.717 21.586C33.9264 19.7953 33.031 17.1773 33.031 13.732V0.199998H36.431V13.596C36.431 16.248 37.009 18.186 38.165 19.41C39.3437 20.634 40.9984 21.246 43.129 21.246C45.2824 21.246 46.937 20.634 48.093 19.41C49.2717 18.186 49.861 16.248 49.861 13.596V0.199998H53.159V13.732C53.159 17.1773 52.2637 19.7953 50.473 21.586C48.705 23.3767 46.2457 24.272 43.095 24.272ZM58.0216 24V21.688L74.0356 1.832L74.4096 3.158H58.2596V0.199998H77.4696V2.512L61.5236 22.368L61.1156 21.042H77.9116V24H58.0216ZM78.8713 24L89.6493 0.199998H93.0153L103.827 24H100.257L90.6353 2.104H91.9953L82.3733 24H78.8713ZM83.4613 18.05L84.3793 15.33H97.7753L98.7613 18.05H83.4613Z" fill="black"/>
</svg>
